<svg width="30" height="30" viewBox="0 0 30 30" fill="none" xmlns="http://www.w3.org/2000/svg">
<g id="Frame">
<path id="Vector" d="M14.9375 22.5C15.375 22.5 15.745 22.3487 16.0475 22.0462C16.35 21.7437 16.5008 21.3742 16.5 20.9375C16.4992 20.5008 16.3483 20.1308 16.0475 19.8275C15.7467 19.5242 15.3767 19.3733 14.9375 19.375C14.4983 19.3767 14.1288 19.5279 13.8288 19.8288C13.5288 20.1296 13.3775 20.4992 13.375 20.9375C13.3725 21.3758 13.5238 21.7458 13.8288 22.0475C14.1338 22.3492 14.5033 22.5 14.9375 22.5ZM15 27.5C13.2708 27.5 11.6458 27.1717 10.125 26.515C8.60417 25.8583 7.28125 24.9679 6.15625 23.8438C5.03125 22.7196 4.14084 21.3967 3.485 19.875C2.82917 18.3533 2.50083 16.7283 2.5 15C2.49917 13.2717 2.8275 11.6467 3.485 10.125C4.1425 8.60333 5.03292 7.28042 6.15625 6.15625C7.27958 5.03208 8.6025 4.14167 10.125 3.485C11.6475 2.82833 13.2725 2.5 15 2.5C16.7275 2.5 18.3525 2.82833 19.875 3.485C21.3975 4.14167 22.7204 5.03208 23.8438 6.15625C24.9671 7.28042 25.8579 8.60333 26.5163 10.125C27.1746 11.6467 27.5025 13.2717 27.5 15C27.4975 16.7283 27.1692 18.3533 26.515 19.875C25.8608 21.3967 24.9704 22.7196 23.8438 23.8438C22.7171 24.9679 21.3942 25.8587 19.875 26.5162C18.3558 27.1737 16.7308 27.5017 15 27.5ZM15.125 9.625C15.6458 9.625 16.0992 9.79167 16.485 10.125C16.8708 10.4583 17.0633 10.875 17.0625 11.375C17.0625 11.8333 16.9221 12.2396 16.6413 12.5938C16.3604 12.9479 16.0425 13.2812 15.6875 13.5938C15.2083 14.0104 14.7867 14.4688 14.4225 14.9688C14.0583 15.4688 13.8758 16.0312 13.875 16.6562C13.875 16.9479 13.9846 17.1929 14.2038 17.3913C14.4229 17.5896 14.6779 17.6883 14.9688 17.6875C15.2813 17.6875 15.5471 17.5833 15.7663 17.375C15.9854 17.1667 16.1258 16.9062 16.1875 16.5938C16.2708 16.1562 16.4583 15.7658 16.75 15.4225C17.0417 15.0792 17.3542 14.7508 17.6875 14.4375C18.1667 13.9792 18.5783 13.4792 18.9225 12.9375C19.2667 12.3958 19.4383 11.7917 19.4375 11.125C19.4375 10.0625 19.0054 9.19292 18.1413 8.51625C17.2771 7.83958 16.2717 7.50083 15.125 7.5C14.3333 7.5 13.5783 7.66667 12.86 8C12.1417 8.33333 11.5946 8.84375 11.2188 9.53125C11.0729 9.78125 11.0263 10.0471 11.0788 10.3287C11.1313 10.6104 11.2717 10.8237 11.5 10.9688C11.7917 11.1354 12.0938 11.1875 12.4063 11.125C12.7188 11.0625 12.9792 10.8854 13.1875 10.5938C13.4167 10.2813 13.7033 10.0417 14.0475 9.875C14.3917 9.70833 14.7508 9.625 15.125 9.625Z" fill="#2254C5"/>
</g>
</svg>
