<svg width="18" height="18" viewBox="0 0 18 18" fill="none" xmlns="http://www.w3.org/2000/svg">
<path id="Vector" d="M4.98999 11H5.77999L6.05999 10.73C5.04604 9.55407 4.4888 8.05271 4.48999 6.5C4.48999 5.21442 4.87121 3.95772 5.58543 2.8888C6.29966 1.81988 7.31483 0.986756 8.50255 0.494786C9.69027 0.00281635 10.9972 -0.125905 12.2581 0.124899C13.519 0.375703 14.6771 0.994767 15.5862 1.90381C16.4952 2.81285 17.1143 3.97104 17.3651 5.23192C17.6159 6.49279 17.4872 7.79973 16.9952 8.98744C16.5032 10.1752 15.6701 11.1903 14.6012 11.9046C13.5323 12.6188 12.2756 13 10.99 13C9.37999 13 7.89999 12.41 6.75999 11.43L6.48999 11.71V12.5L1.48999 17.49L-1.33514e-05 16L4.98999 11ZM10.99 11C13.48 11 15.49 8.99 15.49 6.5C15.49 4.01 13.48 2 10.99 2C8.49999 2 6.48999 4.01 6.48999 6.5C6.48999 8.99 8.49999 11 10.99 11Z" fill="#979797"/>
</svg>
